<svg xmlns="http://www.w3.org/2000/svg" xmlns:xlink="http://www.w3.org/1999/xlink" version="1.1" width="256" height="256" viewBox="0 0 256 256" xml:space="preserve">
<g style="stroke: none; stroke-width: 0; stroke-dasharray: none; stroke-linecap: butt; stroke-linejoin: miter; stroke-miterlimit: 10; fill: none; fill-rule: nonzero; opacity: 1;" transform="translate(1.4065934065934016 1.4065934065934016) scale(2.81 2.81)">
  <path d="M 55.336 59.709 h -0.089 c 2.644 -1.913 4.374 -5.015 4.374 -8.521 V 39.45 l 0.001 -4.648 c 0 -0.753 0.435 -1.436 1.081 -1.698 c 4.816 -1.954 7.929 -6.575 7.929 -11.773 c 0 -6.661 -5.035 -12.081 -11.591 -12.641 C 55.326 3.538 50.476 0 45 0 c -5.476 0 -10.327 3.538 -12.04 8.689 c -6.557 0.56 -11.591 5.979 -11.591 12.641 c 0 5.198 3.112 9.819 7.928 11.773 c 0.647 0.262 1.082 0.945 1.082 1.699 v 4.647 v 11.739 c 0 3.505 1.73 6.608 4.374 8.521 h -0.089 c -9.429 0 -17.099 7.671 -17.099 17.099 V 89 c 0 0.553 0.448 1 1 1 h 52.87 c 0.553 0 1 -0.447 1 -1 V 76.808 C 72.435 67.38 64.764 59.709 55.336 59.709 z M 30.049 31.25 c -4.058 -1.646 -6.68 -5.54 -6.68 -9.92 c 0 -5.816 4.558 -10.509 10.376 -10.684 c 0.441 -0.013 0.821 -0.313 0.936 -0.739 C 35.939 5.252 40.182 2 45 2 c 4.818 0 9.062 3.252 10.318 7.908 c 0.115 0.425 0.495 0.726 0.936 0.739 c 5.819 0.175 10.377 4.868 10.377 10.684 c 0 4.38 -2.622 8.274 -6.681 9.92 c -1.415 0.574 -2.329 1.968 -2.329 3.552 L 57.62 38.45 H 32.379 v -3.647 C 32.379 33.243 31.443 31.815 30.049 31.25 z M 32.379 51.188 V 40.45 H 57.62 v 10.739 c 0 4.698 -3.822 8.521 -8.52 8.521 h -8.202 C 36.201 59.709 32.379 55.887 32.379 51.188 z M 70.435 88 H 59.317 V 76.681 c 0 -0.553 -0.447 -1 -1 -1 s -1 0.447 -1 1 V 88 H 32.683 V 76.681 c 0 -0.553 -0.448 -1 -1 -1 s -1 0.447 -1 1 V 88 H 19.565 V 76.808 c 0 -8.325 6.773 -15.099 15.099 -15.099 h 6.235 h 8.202 h 6.235 c 8.325 0 15.099 6.773 15.099 15.099 V 88 z" style="stroke: none; stroke-width: 1; stroke-dasharray: none; stroke-linecap: butt; stroke-linejoin: miter; stroke-miterlimit: 10; fill: rgb(0,0,0); fill-rule: nonzero; opacity: 1;" transform=" matrix(1 0 0 1 0 0) " stroke-linecap="round"/>
  <path d="M 45 32.429 c 0.552 0 1 -0.448 1 -1 v -9.415 c 0 -0.552 -0.448 -1 -1 -1 s -1 0.448 -1 1 v 9.415 C 44 31.981 44.448 32.429 45 32.429 z" style="stroke: none; stroke-width: 1; stroke-dasharray: none; stroke-linecap: butt; stroke-linejoin: miter; stroke-miterlimit: 10; fill: rgb(0,0,0); fill-rule: nonzero; opacity: 1;" transform=" matrix(1 0 0 1 0 0) " stroke-linecap="round"/>
  <path d="M 52.473 32.417 c 0.053 0.008 0.104 0.012 0.156 0.012 c 0.484 0 0.909 -0.352 0.987 -0.845 c 0.564 -3.591 1.617 -6.632 3.128 -9.039 c 0.294 -0.468 0.153 -1.085 -0.314 -1.378 c -0.47 -0.294 -1.085 -0.152 -1.379 0.315 c -1.656 2.636 -2.804 5.931 -3.411 9.792 C 51.555 31.819 51.927 32.331 52.473 32.417 z" style="stroke: none; stroke-width: 1; stroke-dasharray: none; stroke-linecap: butt; stroke-linejoin: miter; stroke-miterlimit: 10; fill: rgb(0,0,0); fill-rule: nonzero; opacity: 1;" transform=" matrix(1 0 0 1 0 0) " stroke-linecap="round"/>
  <path d="M 36.384 31.584 c 0.078 0.493 0.503 0.845 0.986 0.845 c 0.052 0 0.104 -0.004 0.157 -0.012 c 0.545 -0.085 0.918 -0.598 0.833 -1.143 c -0.607 -3.861 -1.754 -7.156 -3.41 -9.792 c -0.293 -0.468 -0.911 -0.609 -1.378 -0.315 c -0.468 0.293 -0.609 0.911 -0.315 1.378 C 34.767 24.951 35.819 27.992 36.384 31.584 z" style="stroke: none; stroke-width: 1; stroke-dasharray: none; stroke-linecap: butt; stroke-linejoin: miter; stroke-miterlimit: 10; fill: rgb(0,0,0); fill-rule: nonzero; opacity: 1;" transform=" matrix(1 0 0 1 0 0) " stroke-linecap="round"/>
  <path d="M 41.186 48.175 c 0.552 0 1 -0.447 1 -1 v -0.63 c 0 -0.552 -0.448 -1 -1 -1 s -1 0.448 -1 1 v 0.63 C 40.186 47.728 40.634 48.175 41.186 48.175 z" style="stroke: none; stroke-width: 1; stroke-dasharray: none; stroke-linecap: butt; stroke-linejoin: miter; stroke-miterlimit: 10; fill: rgb(0,0,0); fill-rule: nonzero; opacity: 1;" transform=" matrix(1 0 0 1 0 0) " stroke-linecap="round"/>
  <path d="M 48.814 48.175 c 0.553 0 1 -0.447 1 -1 v -0.63 c 0 -0.552 -0.447 -1 -1 -1 s -1 0.448 -1 1 v 0.63 C 47.814 47.728 48.262 48.175 48.814 48.175 z" style="stroke: none; stroke-width: 1; stroke-dasharray: none; stroke-linecap: butt; stroke-linejoin: miter; stroke-miterlimit: 10; fill: rgb(0,0,0); fill-rule: nonzero; opacity: 1;" transform=" matrix(1 0 0 1 0 0) " stroke-linecap="round"/>
  <path d="M 49.623 52.854 c -0.324 -0.447 -0.949 -0.546 -1.396 -0.221 c -2.201 1.602 -4.252 1.602 -6.452 0 c -0.447 -0.324 -1.072 -0.227 -1.397 0.221 c -0.325 0.446 -0.226 1.071 0.22 1.396 c 1.44 1.048 2.921 1.571 4.402 1.571 s 2.963 -0.523 4.402 -1.571 C 49.85 53.926 49.948 53.301 49.623 52.854 z" style="stroke: none; stroke-width: 1; stroke-dasharray: none; stroke-linecap: butt; stroke-linejoin: miter; stroke-miterlimit: 10; fill: rgb(0,0,0); fill-rule: nonzero; opacity: 1;" transform=" matrix(1 0 0 1 0 0) " stroke-linecap="round"/>
</g>
</svg>